<svg width="17" height="16" viewBox="0 0 17 16" fill="none" xmlns="http://www.w3.org/2000/svg">
<path d="M14.3258 5.4544C14.2372 5.5264 12.6717 6.4496 12.6717 8.5024C12.6717 10.8768 14.6637 11.7168 14.7233 11.7376C14.7141 11.7888 14.4069 12.888 13.673 14.008C13.0187 14.9936 12.3353 15.9776 11.2957 15.9776C10.2562 15.9776 9.98862 15.3456 8.78851 15.3456C7.61898 15.3456 7.20314 15.9984 6.25223 15.9984C5.30131 15.9984 4.63781 15.0864 3.87494 13.9664C2.99129 12.6512 2.27734 10.608 2.27734 8.6688C2.27734 5.5584 4.20975 3.9088 6.11158 3.9088C7.12212 3.9088 7.96449 4.6032 8.59894 4.6032C9.20281 4.6032 10.1446 3.8672 11.2942 3.8672C11.7299 3.8672 13.2954 3.9088 14.3258 5.4544ZM10.7484 2.5504C11.2239 1.96 11.5602 1.1408 11.5602 0.3216C11.5602 0.208 11.5511 0.0928 11.5312 0C10.7576 0.0304 9.83727 0.5392 9.28231 1.2128C8.8466 1.7312 8.43994 2.5504 8.43994 3.3808C8.43994 3.5056 8.45982 3.6304 8.46899 3.6704C8.51791 3.68 8.59741 3.6912 8.67691 3.6912C9.37098 3.6912 10.2439 3.2048 10.7484 2.5504Z" fill="white"/>
</svg>
