<svg width="28" height="12" viewBox="0 0 28 12" fill="none" xmlns="http://www.w3.org/2000/svg">
<path fill-rule="evenodd" clip-rule="evenodd" d="M5.33097 0.106686C4.51582 0.389037 3.90618 1.14304 3.8656 1.91907L3.84973 2.22208L4.10972 2.21316C4.90037 2.186 5.70293 1.29129 5.77765 0.353833C5.81107 -0.0655881 5.81775 -0.0618974 5.33097 0.106686ZM9.33346 0.683067C9.31092 0.706371 9.29243 2.71698 9.29243 5.1512V9.57696H10.0035H10.7146V8.06709V6.55716L11.9864 6.5354C13.4519 6.51033 13.6854 6.45871 14.338 6.01516C15.1626 5.45476 15.5779 4.5324 15.5122 3.40757C15.4348 2.08496 14.6913 1.12866 13.4726 0.784272C13.2094 0.709897 12.7955 0.687915 11.2616 0.666759C10.2237 0.65249 9.35599 0.659818 9.33346 0.683067ZM13.1765 2.03389C13.543 2.20699 13.8123 2.46879 13.9645 2.79995C14.1363 3.17364 14.1279 4.0386 13.9487 4.43912C13.7849 4.80516 13.4973 5.0674 13.0876 5.22436C12.8098 5.3308 12.6259 5.35157 11.7403 5.37647L10.7146 5.40534V3.6297V1.85401L11.795 1.87279C12.8222 1.8907 12.8901 1.89863 13.1765 2.03389ZM5.30602 2.36417C5.17431 2.39023 4.81334 2.49964 4.50384 2.60724L3.94119 2.80292L3.26641 2.57473C2.65185 2.36687 2.55754 2.34935 2.20987 2.37855C1.49138 2.43887 0.767032 2.92964 0.35831 3.63295C-0.295196 4.75761 -0.0300631 6.87202 0.952303 8.37016C1.28537 8.87811 1.76171 9.39036 2.02875 9.52765C2.33316 9.68423 2.70502 9.66263 3.20558 9.45923C3.80258 9.21666 4.27476 9.21627 4.90644 9.45796C5.4297 9.65817 5.76835 9.67833 6.09245 9.52854C6.50287 9.33891 7.15118 8.52535 7.51631 7.74188C7.79982 7.13349 7.80244 7.09013 7.56318 6.9605C7.22973 6.77974 6.89004 6.40318 6.70433 6.00833C6.54543 5.67056 6.53033 5.59161 6.53285 5.11445C6.53657 4.43036 6.68136 4.09215 7.18231 3.59742L7.53425 3.24989L7.24696 2.97619C6.89425 2.64024 6.60133 2.48532 6.12768 2.38422C5.72317 2.29789 5.65009 2.29607 5.30602 2.36417ZM18.0012 3.04621C17.0084 3.27386 16.3124 3.93431 16.1554 4.79767L16.1178 5.00427H16.7534H17.389L17.4763 4.78461C17.6651 4.30927 18.2459 4.02439 18.9006 4.08598C19.6685 4.15821 20.0137 4.54204 20.0137 5.32364V5.70168L18.9334 5.76653C17.7658 5.83661 17.3201 5.91715 16.8928 6.13521C16.2273 6.47486 15.8927 6.99603 15.8903 7.69687C15.8881 8.31897 16.017 8.64661 16.426 9.05843C16.8236 9.45873 17.2102 9.62814 17.8257 9.67172C18.6739 9.73183 19.4407 9.38541 19.9137 8.72853L20.0684 8.51367V9.04708V9.58043L20.7112 9.56495L21.3539 9.54942V7.15288C21.3539 5.02272 21.3433 4.72269 21.2582 4.45334C21.0626 3.83415 20.5472 3.34801 19.8496 3.12478C19.3839 2.9757 18.4769 2.93719 18.0012 3.04621ZM21.9294 3.14489C21.9301 3.18279 22.4455 4.64765 23.0748 6.40021L24.2189 9.5866L24.0925 9.96283C23.8546 10.6709 23.6028 10.8669 22.9266 10.8699L22.5301 10.8716L22.53 11.4023C22.53 12.0066 22.5235 11.9991 23.0496 12C24.1251 12.0016 24.8231 11.5858 25.2758 10.6733C25.4305 10.3616 28 3.21921 28 3.10098C28 3.08726 27.685 3.07602 27.2999 3.07602H26.5998L25.9504 5.18332C25.5932 6.34236 25.2295 7.52222 25.1421 7.80529C25.0548 8.08836 24.975 8.31148 24.9648 8.30113C24.9511 8.28719 23.5632 3.81922 23.3716 3.17243C23.3464 3.08704 23.2621 3.07602 22.6357 3.07602C22.1056 3.07602 21.9285 3.09326 21.9294 3.14489ZM20.0035 7.11663C19.9674 7.80953 19.7301 8.16923 19.1253 8.44817C18.6899 8.64887 18.0964 8.65537 17.726 8.46348C16.9416 8.05701 17.1145 7.06016 18.0117 6.81621C18.2235 6.75864 19.0858 6.683 19.7334 6.66515L20.0275 6.65705L20.0035 7.11663Z" fill="black"/>
</svg>
