<svg width="24" height="24" viewBox="0 0 24 24" fill="none" xmlns="http://www.w3.org/2000/svg">
<g clip-path="url(#clip0_327_10402)">
<path d="M12 23.001C18.0751 23.001 23 18.0761 23 12.001C23 5.92584 18.0751 1.00098 12 1.00098C5.92487 1.00098 1 5.92584 1 12.001C1 18.0761 5.92487 23.001 12 23.001Z" stroke="#191919" stroke-width="1.2" stroke-linecap="round" stroke-linejoin="round"/>
<path d="M8.5 8.35736C8.78229 7.57137 9.33946 6.90859 10.0728 6.48642C10.8062 6.06425 11.6685 5.90993 12.5069 6.05079C13.3453 6.19165 14.1058 6.6186 14.6536 7.25602C15.2014 7.89344 15.5013 8.7002 15.5 9.5334C15.5 11.8855 11.8979 13.0615 11.8979 13.0615V15M11.9444 18H11.9604" stroke="#191919" stroke-width="1.2" stroke-linecap="round" stroke-linejoin="round"/>
</g>
<defs>
<clipPath id="clip0_327_10402">
<rect width="24" height="24" fill="white"/>
</clipPath>
</defs>
</svg>
