<svg width="24" height="24" viewBox="0 0 24 24" fill="none" xmlns="http://www.w3.org/2000/svg">
<path d="M12.0023 12.7462L4.40625 2.53418" stroke="#212121" stroke-width="1.5" stroke-linecap="round" stroke-linejoin="round"/>
<path d="M15.0013 3.73047C16.8734 4.35383 18.5049 5.54465 19.6693 7.13756C20.8338 8.73047 21.4733 10.6464 21.4992 12.6194C21.5251 14.5924 20.9359 16.5244 19.8137 18.1473C18.6914 19.7702 17.0916 21.0034 15.2365 21.6756C13.3814 22.3478 11.3631 22.4257 9.46165 21.8985C7.56025 21.3713 5.87019 20.2651 4.62615 18.7336C3.3821 17.2021 2.6458 15.3211 2.51949 13.3521C2.39318 11.383 2.88313 9.42341 3.9213 7.74547" stroke="#212121" stroke-width="1.5" stroke-linecap="round" stroke-linejoin="round"/>
<path d="M11.5 4.75391C12.3284 4.75391 13 4.08233 13 3.25391C13 2.42548 12.3284 1.75391 11.5 1.75391C10.6716 1.75391 10 2.42548 10 3.25391C10 4.08233 10.6716 4.75391 11.5 4.75391Z" stroke="#212121" stroke-width="1.5" stroke-linecap="round" stroke-linejoin="round"/>
</svg>
