<svg width="24" height="24" viewBox="0 0 24 24" fill="none" xmlns="http://www.w3.org/2000/svg">
<g clip-path="url(#clip0_323_9693)">
<path d="M11.2142 5.30137C11.2673 5.20982 11.3443 5.13369 11.4372 5.08075C11.5301 5.02781 11.6357 4.99994 11.7432 5H14.7921C14.8999 4.99993 15.0058 5.02797 15.099 5.08122C15.1921 5.13447 15.2691 5.21103 15.3221 5.30305C15.3751 5.39507 15.4021 5.49923 15.4004 5.60485C15.3988 5.71047 15.3684 5.81376 15.3126 5.90412L12.1932 10.956H15.3916C15.5102 10.956 15.6263 10.9899 15.7255 11.0536C15.8247 11.1174 15.9027 11.2081 15.9498 11.3147C15.997 11.4213 16.0113 11.5391 15.991 11.6536C15.9707 11.7681 15.9166 11.8742 15.8355 11.959L9.22984 18.9055C9.18147 18.9562 9.11654 18.9888 9.04626 18.9976C8.97599 19.0064 8.90478 18.9909 8.84494 18.9537C8.78509 18.9166 8.74038 18.8601 8.7185 18.7941C8.69663 18.7281 8.69898 18.6567 8.72514 18.5922L10.2401 13.3384H7.60839C7.50198 13.3385 7.39742 13.3112 7.30516 13.2593C7.21289 13.2073 7.13615 13.1326 7.0826 13.0425C7.02905 12.9525 7.00057 12.8502 7.00001 12.746C6.99944 12.6418 7.02681 12.5392 7.07938 12.4486L11.2142 5.30137Z" stroke="#212121" stroke-width="1.3" stroke-linecap="round" stroke-linejoin="round"/>
<circle cx="12" cy="12" r="11" stroke="#212121" stroke-width="1.5"/>
</g>
<defs>
<clipPath id="clip0_323_9693">
<rect width="24" height="24" fill="white"/>
</clipPath>
</defs>
</svg>
